<svg id="Laag_1" data-name="Laag 1" xmlns="http://www.w3.org/2000/svg" viewBox="0 0 500 500">
    <defs>
        <style>.cls-1{fill:#fff;}</style>
    </defs>
    <path class="cls-1"
          d="M117.63,320.33h-9.16c-5.59.36-8.93,3.78-10.13,10.11v77.4h19.29V372.11H166.2v35.73h20V320.33H165.92V353H117.35Z"/>
    <path class="cls-1"
          d="M291.65,320.33H214.49c-6,.17-10.82,5.4-10.82,13.3v60.08c.11,9.13,4,14,11.93,14.13h76v-21H222.26V339.16h69.39Z"/>
    <path class="cls-1"
          d="M328.28,339.12v47.71h51.78V369.11h17.59v38.72h-76c-8-.17-11.79-5-12-14.11V333.66c0-7.89,4.8-13.18,10.87-13.35h77.11v18.81Z"/>
    <polygon class="cls-1" points="98.34 88.52 98.34 183.2 146.17 135.37 98.34 88.52"/>
    <polygon class="cls-1" points="397.65 91.48 196.84 297.11 292.62 297.11 397.65 189.12 397.65 91.48"/>
    <polygon class="cls-1" points="246.6 91.48 98.34 244.34 98.34 297.11 142.06 297.11 297.25 135.86 246.6 91.48"/>
    <polygon class="cls-1" points="397.65 246.81 350.32 297.11 397.65 297.11 397.65 246.81"/>
</svg>